::Release Info::
================
Release Title: The.Four.Seasons.1981.DVDrip-telly
Encode date:

::IMDB and TMDB Info::
======================
TMDB Link: http://www.themoviedb.org/movie/25113
IMDB Link: http://www.imdb.com/title/tt0082405
Storyline:Three middle-aged wealthy couples take vacations together in Spring, Summer, Autumn and Winter. Along the way we are treated to mid-life, marital, parental and other crises.
Genre:Comedy | Drama | Romance
Release date:22/05/1981

::Actors::
==========
Alan Alda ... Jack Burroughs
Carol Burnett ... Kate Burroughs
Len Cariou ... Nick Callan
Sandy Dennis ... Anne Callan
Rita Moreno ... Claudia Zimmer
Jack Weston ... Danny Zimmer
Bess Armstrong ... Ginny Newley (Callan)

General
Complete name : The.Four.Seasons.1981.DVDrip-telly.flv
Format : Flash Video
File size : 375 MiB
Duration : 1h 43mn
Overall bit rate : 506 Kbps
Tagging application : Yet Another Metadata Injector for FLV - Version 1.9

Video
=====
Format : AVC
Format/Info : Advanced Video Codec
Format profile : High@L3.0
Format settings, CABAC : Yes
Format settings, ReFrames : 4 frames
Codec ID : 7
Duration : 1h 43mn
Bit rate : 400 Kbps
Width : 640 pixels
Height : 360 pixels
Display aspect ratio : 16:9
Frame rate mode : Constant
Frame rate : 25.000 fps
Color space : YUV
Chroma subsampling : 4:2:0
Bit depth : 8 bits
Scan type : Progressive
Bits/(Pixel*Frame) : 0.069
Stream size : 299 MiB (80%)
Writing library : x264 core 114 r1924 08d04a4

Audio
=====
Format : AAC
Format/Info : Advanced Audio Codec
Format profile : LC
Codec ID : 10
Duration : 1h 43mn
Bit rate : 94.4 Kbps
Channel(s) : 2 channels
Channel positions : Front: L R
Sampling rate : 44.1 KHz
Compression mode : Lossy
Stream size : 74.3 MiB (20%)